<svg xmlns="http://www.w3.org/2000/svg" version="1.1" xmlns:xlink="http://www.w3.org/1999/xlink" width="1500" height="238" viewBox="0 0 1500 238"><svg xml:space="preserve" width="1500" height="238" data-version="2" data-id="lg_8incZuyDUZgI1kZ8gt" viewBox="0 0 540 238" x="0" y="0"><rect width="100%" height="100%" fill="transparent"></rect><path fill="#fff" d="m124.045 42.135 31.13 42.28h-22.14l-25.17-35.77v35.77h-18.54V2.575h18.54v33.48l23.19-33.48h20.89Z"></path><rect width="65.85" height="81.84" x="-32.92" y="-40.92" fill="none" rx="0" ry="0" transform="translate(122.75 44)"></rect><path fill="#fff" d="M163.105 2.575h18.54v81.84h-18.54Z"></path><rect width="18.54" height="81.84" x="-9.27" y="-40.92" fill="none" rx="0" ry="0" transform="translate(172.88 44)"></rect><path fill="#fff" d="M196.465 2.575h28.09q7 0 12.98 1.92 5.99 1.92 9.68 6.29 3.69 4.38 3.69 11.82 0 4.89-1.83 8.74-1.83 3.84-4.84 6.29t-6.54 3.26q3.1.37 6.04 1.76 2.95 1.4 5.34 3.85 2.38 2.45 3.78 6.07 1.39 3.63 1.39 8.59 0 6.88-3.07 12.12-3.06 5.24-8.92 8.18-5.86 2.95-14.36 2.95h-31.43Zm18.54 67.02h8.43q3.97 0 6.48-1.21 2.51-1.21 3.69-3.47 1.18-2.26 1.18-5.42 0-4.96-3.07-7.29-3.07-2.32-8.59-2.32h-8.12Zm0-34.22h7.5q3.29 0 5.49-1.18t3.34-3.32q1.15-2.14 1.15-4.93 0-5.02-2.85-6.79-2.85-1.76-7.81-1.76h-6.82Z"></path><rect width="57.78" height="81.84" x="-28.89" y="-40.92" fill="none" rx="0" ry="0" transform="translate(225.85 44)"></rect><path fill="#fff" d="M265.785 2.575h28.08q7.01 0 12.99 1.92t9.67 6.29q3.69 4.38 3.69 11.82 0 4.89-1.83 8.74-1.83 3.84-4.83 6.29-3.01 2.45-6.54 3.26 3.1.37 6.04 1.76 2.95 1.4 5.33 3.85 2.39 2.45 3.78 6.07 1.4 3.63 1.4 8.59 0 6.88-3.07 12.12-3.07 5.24-8.93 8.18-5.86 2.95-14.35 2.95h-31.43Zm18.53 67.02h8.44q3.96 0 6.47-1.21 2.52-1.21 3.69-3.47 1.18-2.26 1.18-5.42 0-4.96-3.07-7.29-3.07-2.32-8.58-2.32h-8.13Zm0-34.22h7.51q3.28 0 5.48-1.18 2.2-1.18 3.35-3.32 1.15-2.14 1.15-4.93 0-5.02-2.85-6.79-2.86-1.76-7.82-1.76h-6.82Z"></path><rect width="57.78" height="81.84" x="-28.89" y="-40.92" fill="none" rx="0" ry="0" transform="translate(295.18 44)"></rect><path fill="#fff" d="M335.095 2.575h18.54v65.6h29.7v16.24h-48.24Z"></path><rect width="48.24" height="81.84" x="-24.12" y="-40.92" fill="none" rx="0" ry="0" transform="translate(359.71 44)"></rect><path fill="#fff" d="M395.365 2.575h52.26v16.24h-33.79v16.68h33.48v15.75h-33.48v16.93h33.79v16.24h-52.26Z"></path><rect width="52.26" height="81.84" x="-26.13" y="-40.92" fill="none" rx="0" ry="0" transform="translate(422 44)"></rect><path fill="#fff" d="m40.345 190.655 31.13 42.29h-22.14l-25.17-35.78v35.78H5.625v-81.84h18.54v33.48l23.19-33.48h20.89Z"></path><rect width="65.85" height="81.84" x="-32.92" y="-40.92" fill="none" rx="0" ry="0" transform="translate(39.05 192.53)"></rect><path fill="#fff" d="M95.405 191.955q0 7.01 2.88 12.68 2.89 5.68 8 9.02 5.12 3.35 11.87 3.35 6.76 0 11.88-3.35 5.11-3.34 7.99-9.02 2.89-5.67 2.89-12.68 0-7-2.89-12.64-2.88-5.65-7.99-9.02-5.12-3.38-11.88-3.38-6.75 0-11.87 3.38-5.11 3.37-8 9.02-2.88 5.64-2.88 12.64m-19.28 0q0-8.92 3.16-16.64 3.16-7.72 8.87-13.49 5.7-5.76 13.39-8.99 7.69-3.22 16.61-3.22 9.06 0 16.71 3.22 7.66 3.23 13.33 8.99 5.68 5.77 8.81 13.49 3.13 7.72 3.13 16.64 0 8.99-3.04 16.71-3.04 7.72-8.68 13.52t-13.33 9.02q-7.69 3.22-16.93 3.22-9.42 0-17.14-3.22-7.72-3.22-13.3-9.02-5.58-5.8-8.59-13.52-3-7.72-3-16.71"></path><rect width="84.01" height="84.81" x="-42.01" y="-42.41" fill="none" rx="0" ry="0" transform="translate(118.63 192.52)"></rect><path fill="#fff" d="m187.905 168.085 1.37.25v64.61h-18.54v-81.84h25.3l33.17 64.48-1.37.24v-64.72h18.54v81.84h-25.42Z"></path><rect width="75.64" height="81.84" x="-37.82" y="-40.92" fill="none" rx="0" ry="0" transform="translate(209.06 192.53)"></rect><path fill="#fff" d="M275.635 167.345h-19.53v-16.24h57.54v16.24h-19.47v65.6h-18.54Z"></path><rect width="57.54" height="81.84" x="-28.77" y="-40.92" fill="none" rx="0" ry="0" transform="translate(285.38 192.53)"></rect><path fill="#fff" d="M323.255 151.105h33.36q7.13 0 12.71 2.97 5.58 2.98 8.83 8.59 3.26 5.61 3.26 13.36 0 7.75-2.76 12.68t-6.61 7.38q-3.84 2.45-7.13 2.94l19.91 33.92h-20.84l-17.73-32.49h-4.46v32.49h-18.54Zm18.54 36.51h8.18q4.96 0 8.68-2.41 3.72-2.42 3.72-8.56 0-6.14-3.66-8.52-3.65-2.39-8.61-2.39h-8.31Z"></path><rect width="61.57" height="81.84" x="-30.79" y="-40.92" fill="none" rx="0" ry="0" transform="translate(354.54 192.53)"></rect><path fill="#fff" d="M409.315 191.955q0 7.01 2.88 12.68 2.88 5.68 8 9.02 5.11 3.35 11.87 3.35 6.76 0 11.87-3.35 5.12-3.34 8-9.02 2.88-5.67 2.88-12.68 0-7-2.88-12.64-2.88-5.65-8-9.02-5.11-3.38-11.87-3.38-6.76 0-11.87 3.38-5.12 3.37-8 9.02-2.88 5.64-2.88 12.64m-19.29 0q0-8.92 3.17-16.64 3.16-7.72 8.86-13.49 5.71-5.76 13.39-8.99 7.69-3.22 16.62-3.22 9.05 0 16.71 3.22 7.66 3.23 13.33 8.99 5.67 5.77 8.8 13.49 3.13 7.72 3.13 16.64 0 8.99-3.03 16.71-3.04 7.72-8.68 13.52-5.65 5.8-13.33 9.02-7.69 3.22-16.93 3.22-9.42 0-17.14-3.22-7.72-3.22-13.3-9.02-5.58-5.8-8.59-13.52t-3.01-16.71"></path><rect width="84.01" height="84.81" x="-42.01" y="-42.41" fill="none" rx="0" ry="0" transform="translate(432.53 192.52)"></rect><path fill="#fff" d="M485.135 151.105h18.54v65.59h29.7v16.25h-48.24Z"></path><rect width="48.24" height="81.84" x="-24.12" y="-40.92" fill="none" rx="0" ry="0" transform="translate(509.75 192.53)"></rect></svg></svg>